<?xml version="1.0" encoding="utf-8"?>
<!-- Generator: Adobe Illustrator 20.1.0, SVG Export Plug-In . SVG Version: 6.00 Build 0)  -->
<svg version="1.1" xmlns="http://www.w3.org/2000/svg" xmlns:xlink="http://www.w3.org/1999/xlink" x="0px" y="0px"
	 viewBox="0 0 263 194" style="enable-background:new 0 0 263 194;" xml:space="preserve">
<style type="text/css">
	.st0{fill:#9E3422;}
	.st1{stroke:#000000;stroke-miterlimit:10;}
	.st2{fill:#BCBEC0;stroke:#000000;stroke-miterlimit:10;}
	.st3{fill:#54554E;stroke:#000000;stroke-width:2;stroke-miterlimit:10;}
	.st4{fill:#54554E;}

.farley {
animation: slide 10s  linear infinite;
-moz-animation: slide 10s  linear infinite;
-webkit-animation: slide 10s  linear infinite;
}

@keyframes slide {
  0%   {left:-25%;}
	100% {left:100%;}
}
@-moz-keyframes slide
{
	0%   {left:-25%;}
	100% {left:100%;}
}
@-webkit-keyframes slide
{
	0%   {left:-25%;}
	100% {left:100%;}
}
</style>
<g class="farley">
<g id="Layer_3">
</g>
<g id="skateboard">
	<g id="skateboard_1_">
		<g id="board">
			<path class="st0" d="M54.6-154.9c0,0-53.8-14.9-32.2,29.3c0,0,5,8.3,16.9,12.5h163.3c0,0,28.1-6.4,29-26.7c0,0,7.4-33-48.8-15.2
				H54.6z"/>
			<path d="M54.6-154.8c-2.6-0.6-5.2-1.1-7.8-1.4c-1.3-0.2-2.6-0.3-3.9-0.4c-1.3-0.1-2.6-0.2-4-0.2c-1.3,0-2.6,0-4,0.1
				c-1.3,0.1-2.6,0.2-3.9,0.4c-1.3,0.2-2.6,0.5-3.8,0.9c-1.2,0.4-2.4,0.9-3.5,1.6c-0.6,0.3-1,0.7-1.6,1.1c-0.5,0.4-0.9,0.9-1.4,1.3
				c-0.4,0.5-0.8,1-1.1,1.5c-0.3,0.6-0.6,1.1-0.8,1.7c-0.2,0.6-0.4,1.2-0.5,1.8l-0.3,1.9l0,1.9c0,0.6,0.1,1.3,0.2,1.9
				c0.1,1.3,0.5,2.6,0.7,3.8c0.4,1.3,0.7,2.5,1.2,3.7c0.5,1.2,0.9,2.5,1.4,3.7l1.6,3.6l0-0.1c0.2,0.3,0.5,0.7,0.7,1
				c0.3,0.3,0.5,0.7,0.8,1c0.6,0.7,1.1,1.3,1.8,1.9c0.3,0.3,0.6,0.6,0.9,0.9c0.3,0.3,0.6,0.6,1,0.9c0.7,0.6,1.3,1.1,2,1.6
				c0.3,0.3,0.7,0.5,1.1,0.7c0.4,0.2,0.7,0.5,1.1,0.7c0.7,0.5,1.5,0.9,2.3,1.3c0.8,0.4,1.6,0.8,2.4,1.1c0.4,0.2,0.8,0.3,1.2,0.5
				l1.2,0.5l-0.3,0c6.8,0,13.6-0.1,20.4,0l20.4,0.1l40.8,0.4l20.4,0.1c6.8,0,13.6,0,20.4,0c6.8,0,13.6,0,20.4-0.1l20.4-0.2l-0.1,0
				c1.7-0.4,3.3-1,4.9-1.6c1.6-0.6,3.2-1.3,4.8-2c0.8-0.4,1.6-0.8,2.3-1.2c0.8-0.4,1.5-0.8,2.3-1.3c0.7-0.4,1.5-0.9,2.2-1.4
				c0.7-0.5,1.4-1,2.1-1.5c0.7-0.5,1.3-1.1,2-1.7l0.9-0.9l0.9-0.9c0.6-0.6,1.1-1.3,1.6-2c0.5-0.7,1-1.4,1.4-2.1
				c0.4-0.7,0.8-1.5,1.1-2.3c0.4-0.8,0.6-1.6,0.9-2.4c0.2-0.8,0.4-1.6,0.5-2.5c0.2-0.8,0.2-1.7,0.3-2.5l0-0.1l0-0.1
				c0.2-1.2,0.3-2.5,0.3-3.7c0-1.3-0.2-2.5-0.5-3.7c-0.3-1.2-0.7-2.4-1.3-3.5c-0.3-0.6-0.6-1.1-0.9-1.6c-0.4-0.5-0.7-1-1.2-1.4
				l-0.6-0.7l-0.7-0.6c-0.4-0.4-1-0.7-1.5-1.1c-0.5-0.3-1.1-0.6-1.6-0.9c-0.6-0.3-1.2-0.5-1.7-0.7c-1.2-0.4-2.4-0.7-3.6-0.9
				c-0.6-0.1-1.2-0.2-1.9-0.3c-0.6-0.1-1.3-0.2-1.9-0.2c-1.3-0.1-2.6-0.1-3.8-0.1c-1.3,0-2.6,0.1-3.8,0.2c-1.3,0.1-2.6,0.3-3.8,0.5
				c-1.3,0.2-2.5,0.4-3.8,0.7c-1.3,0.2-2.5,0.5-3.8,0.8c-1.3,0.3-2.5,0.6-3.8,0.9c-1.3,0.3-2.5,0.6-3.8,1l-3.7,1.1l-0.2,0l-0.2,0
				l-32,0l-32-0.2l-32-0.3L54.6-154.8L54.6-154.8z M54.6-155l32-0.4l32-0.3l32-0.2l32,0l-0.3,0l3.8-1.1c1.3-0.4,2.5-0.7,3.8-1.1
				c1.3-0.3,2.5-0.7,3.8-1c1.3-0.3,2.6-0.6,3.9-0.8c1.3-0.2,2.6-0.5,3.9-0.6c1.3-0.1,2.6-0.4,4-0.4c1.3-0.1,2.7-0.2,4-0.2
				c1.3-0.1,2.7,0,4,0.1c0.7,0,1.3,0.1,2,0.2c0.7,0.1,1.3,0.2,2,0.3c1.3,0.2,2.6,0.6,3.9,1c0.6,0.3,1.3,0.5,1.9,0.8
				c0.6,0.3,1.2,0.6,1.8,1c0.6,0.4,1.2,0.7,1.7,1.2l0.8,0.7l0.7,0.8c0.5,0.5,0.9,1.1,1.3,1.6c0.4,0.6,0.8,1.2,1.1,1.8
				c0.7,1.2,1.1,2.6,1.4,3.9c0.3,1.3,0.5,2.7,0.5,4.1c0,1.4-0.1,2.7-0.4,4.1l0-0.2c-0.1,0.9-0.1,1.8-0.3,2.7
				c-0.1,0.9-0.4,1.8-0.6,2.7c-0.3,0.9-0.6,1.7-1,2.6c-0.4,0.8-0.8,1.6-1.3,2.4c-0.5,0.8-1,1.5-1.6,2.2c-0.5,0.7-1.1,1.4-1.8,2.1
				l-0.9,1l-1,0.9c-0.7,0.6-1.4,1.2-2.1,1.7c-0.7,0.6-1.4,1.1-2.2,1.6c-0.7,0.5-1.5,1-2.3,1.4c-0.8,0.4-1.5,0.9-2.3,1.3
				c-0.8,0.4-1.6,0.8-2.4,1.2c-1.6,0.7-3.3,1.4-4.9,2c-1.7,0.6-3.4,1.1-5.1,1.5l-0.1,0l-0.1,0l-20.4-0.2c-6.8-0.1-13.6-0.1-20.4-0.1
				c-6.8,0-13.6-0.1-20.4,0l-20.4,0.1L80-112.3l-20.4,0.1c-6.8,0-13.6,0-20.4,0l-0.2,0l-0.1,0l-1.3-0.5c-0.4-0.2-0.9-0.3-1.3-0.5
				c-0.8-0.4-1.7-0.7-2.5-1.2c-0.8-0.4-1.6-0.9-2.4-1.4c-0.4-0.2-0.8-0.5-1.1-0.7c-0.4-0.3-0.8-0.5-1.1-0.8
				c-0.7-0.5-1.4-1.1-2.1-1.7c-0.4-0.3-0.7-0.6-1-0.9c-0.3-0.3-0.7-0.6-1-1c-0.6-0.6-1.3-1.3-1.8-2c-0.3-0.4-0.6-0.7-0.9-1.1
				c-0.3-0.4-0.5-0.7-0.8-1.2l0,0l0,0l-1.7-3.7c-0.5-1.2-1-2.5-1.4-3.8c-0.4-1.3-0.8-2.6-1.1-3.9c-0.2-1.3-0.6-2.6-0.7-4
				c0-0.7-0.2-1.4-0.1-2l0.1-2.1l0.3-2.1c0.1-0.7,0.4-1.3,0.6-2c0.2-0.7,0.6-1.2,0.9-1.9c0.4-0.6,0.8-1.1,1.3-1.7
				c0.5-0.5,1-1,1.5-1.4c0.6-0.4,1.1-0.8,1.7-1.1c2.4-1.4,5.1-2.1,7.7-2.4c1.3-0.2,2.7-0.3,4-0.3c1.3,0,2.7,0,4,0
				c1.3,0.1,2.7,0.2,4,0.3c1.3,0.2,2.6,0.3,4,0.6C49.4-156.3,52-155.7,54.6-155z"/>
		</g>
		<ellipse id="wheel_1_" class="st1" cx="79.6" cy="-104.8" rx="9.4" ry="8.3"/>
		<ellipse id="wheel" class="st1" cx="177.4" cy="-104.8" rx="9.4" ry="8.3"/>
	</g>
</g>
<g class="farley" id="farley">
	<g id="farley_1_">
		<path class="st2" d="M86.7-214.9c0,0-20,39.1,12.3,38.4s0,1.8,0,1.8s27.5-1.8,28.8-33s0,0,0,0S123.4-242.3,86.7-214.9"/>
		<path class="st3" d="M163-128c0,0,1.8-13.5,8.5-15.5c0,0,1.5-3.2,0-8.2c0,0,5.9-22.5-3.9-22.2c0,0-1.6-15-6.6-10.8
			c0,0-5.2-19-10.8-8.8s0,1.8,0,1.8s9.8-18-9.8-17.2c0,0,5.2,2,3.8-6.2c0,0,6,0.5,4.5-6.2c0,0,4.8,0.2,2-7c0,0-0.7,7.5,6.1,6
			c0,0-0.1-11.5-10.4-11.2c0,0-1-11.8-13.8-10.2c0,0-7.5-7.2-15.8-1.2c0,0-24.8-7-24.8,11.2c0,0-10.2,2.5-7,13.2c0,0-4.5,15.2,20,10
			c0,0,10.8-2,13-8c0,0-5.2,9.2,8.8,12c0,0-1.5,4.2,3,4.2c0,0-11.5,2.6,0.8,14.7l-6.5-4.2c0,0-6.2,18.8-27.2,18.2
			c0,0-8.2-1.5-8.8,5.2c0,0,0.8,12.8,13.2,7c0,0-36.8-2-28,17.8c0,0-2,7.5,13.2,6c0,0,11.8,20.5,14.8,1.8c0,0,0.9,8.9,6.2,3.2
			c0.3-0.3,0.7-0.8,1-1.2c6.2-8-3,9.8,12.2,2c0,0-4.5,15.2,6,10.8l5.5-6.8l3.8,5.5l1.8-10c0,0,9.2,12.2,15.5,8
			C153.5-124.5,160.9-120,163-128z"/>
		<path class="st2" d="M144.2-215.2c0,0,0.2,16,20.2,13c0,0,10-19.7-17.8-22.2L144.2-215.2"/>
		<g>
			<path class="st4" d="M135.5-183.5c0,0-5.8-2.8-4.8,5.2s-0.1,1.2-0.1,1.2s-6.1-7.5-8.1,5c0,0-6.2-4.8-5.8,4.5c0,0,7-0.5,4.2,7.8
				s0,1.8,0,1.8s11.8,4.5,14.5-5.8c0,0,18.3,7,19.8-3.5C155.3-167.2,159-195.5,135.5-183.5z"/>
			<path d="M135.5-183.5c-0.6-0.2-1.3-0.4-1.9-0.4c-0.3,0-0.7,0-1,0.2c-0.3,0.1-0.6,0.3-0.8,0.5c-0.1,0.1-0.2,0.2-0.3,0.4l-0.2,0.4
				c-0.1,0.3-0.2,0.6-0.3,0.9c0,0.3-0.1,0.6-0.1,1l0,1c0.1,0.7,0.1,1.3,0.2,2l0.3,2c0,0.3,0.1,0.7,0.1,1c0,0.1,0,0.1,0,0.3l0,0
				c0,0-0.1,0.3-0.3,0.3c-0.2,0-0.2,0-0.3-0.1c-0.1,0-0.1-0.1-0.1-0.2c0-0.1,0-0.1,0-0.1l0-0.1l-0.1-0.5l-0.4-2l0.1,0.2
				c-0.3-0.4-0.8-0.7-1.2-1.1c-0.4-0.3-0.9-0.6-1.3-0.7c-0.5-0.2-0.9-0.2-1.4-0.1c-0.4,0.1-0.8,0.4-1.1,0.7
				c-0.3,0.4-0.6,0.8-0.8,1.3c-0.2,0.5-0.4,1-0.6,1.5c-0.3,1-0.5,2.1-0.7,3.2l-0.2,1.2l-1-0.7c-0.3-0.2-0.7-0.4-1-0.6
				c-0.4-0.2-0.7-0.3-1.1-0.4c-0.2-0.1-0.3,0-0.5-0.1c-0.2,0-0.3,0-0.5,0c-0.1,0.1-0.3,0.1-0.4,0.2c-0.1,0.1-0.2,0.1-0.3,0.3
				c-0.1,0.1-0.2,0.2-0.3,0.4l-0.2,0.5c-0.1,0.2-0.1,0.4-0.1,0.6c0,0.2-0.1,0.4-0.1,0.6c0,0.4-0.1,0.8-0.1,1.2l0,1.2l-0.9-0.8
				c0.5,0,0.9,0,1.3,0.1c0.4,0.1,0.8,0.2,1.3,0.3c0.4,0.1,0.8,0.3,1.2,0.6l0.6,0.4l0.5,0.5c0.2,0.2,0.3,0.4,0.4,0.6
				c0.1,0.2,0.2,0.4,0.3,0.6c0.1,0.2,0.2,0.4,0.2,0.6l0.1,0.7c0.1,0.4,0,0.9,0,1.3c0,0.4-0.1,0.8-0.1,1.2c0,0.4-0.2,0.8-0.3,1.2
				c-0.1,0.4-0.2,0.8-0.3,1.1l-0.7,2.1c-0.1,0.4-0.2,0.7-0.3,1l-0.1,0.2c0,0.1,0,0.2,0,0.1l0,0l0,0c0,0,0-0.1,0-0.2
				c0-0.1-0.1-0.2-0.2-0.3c-0.1-0.1-0.1-0.1-0.3-0.3c-0.2-0.1-0.6-0.1-0.8,0c-0.1,0.1-0.1,0.1-0.1,0.1l0,0l-0.1,0.1l-0.1,0.1
				c0,0,0,0,0,0l0.1-0.2c0.3-0.6,0.6-1.3,0.9-2l0.4-0.9l0.9,0.3c0.3,0.1,0.6,0.2,1,0.3c0.3,0.1,0.7,0.2,1,0.2
				c0.7,0.1,1.4,0.3,2.1,0.3c0.3,0,0.7,0.1,1,0c0.3,0,0.7,0,1,0c0.3,0,0.7,0,1-0.1c0.3-0.1,0.7-0.1,1-0.2l0.9-0.3
				c0.3-0.1,0.6-0.3,0.9-0.5c0.3-0.1,0.5-0.4,0.8-0.6l0.4-0.3c0.1-0.1,0.2-0.3,0.3-0.4c0.2-0.3,0.4-0.5,0.6-0.8l0.5-0.9
				c0.2-0.3,0.3-0.6,0.4-0.9l0.3-1l0.4-1l0.9,0.3c1.1,0.4,2.2,0.8,3.4,1.1c1.1,0.3,2.3,0.6,3.4,0.8c2.3,0.4,4.7,0.6,6.9,0.2
				c1.1-0.2,2.1-0.6,2.9-1.2c0.8-0.6,1.4-1.5,1.7-2.5c0.3-1,0.4-2.2,0.5-3.4c0.1-1.2,0.1-2.4,0-3.5c-0.1-2.4-0.4-4.7-1.2-6.9
				c-0.4-1.1-0.9-2.1-1.7-3c-0.7-0.9-1.6-1.6-2.6-2.1c-1-0.5-2.2-0.7-3.3-0.8c-0.6,0-1.2,0-1.8,0l-0.9,0.1l-0.9,0.2l-0.9,0.2
				l-0.9,0.2c-0.6,0.2-1.2,0.3-1.7,0.5C137.7-184.5,136.6-184,135.5-183.5z M135.5-183.5c1.1-0.6,2.1-1.1,3.3-1.6
				c0.5-0.3,1.1-0.5,1.7-0.7l0.9-0.3l0.9-0.2l0.9-0.2l0.9-0.1c0.6-0.1,1.2-0.1,1.8-0.1c1.2,0,2.5,0.2,3.7,0.7
				c1.2,0.5,2.2,1.3,3.1,2.3c0.9,1,1.5,2.1,1.9,3.2c1,2.3,1.4,4.8,1.6,7.2c0.1,1.2,0.1,2.5,0.1,3.7c0,0.6,0,1.2-0.1,1.8
				c0,0.6-0.2,1.3-0.3,1.9c-0.4,1.3-1.2,2.5-2.2,3.4c-1.1,0.9-2.4,1.3-3.7,1.6c-2.6,0.5-5.1,0.3-7.5-0.1c-1.2-0.2-2.4-0.5-3.6-0.8
				c-1.2-0.3-2.4-0.7-3.6-1.1l1.3-0.7l-0.4,1.1c-0.1,0.4-0.2,0.8-0.5,1.1l-0.6,1.1c-0.2,0.4-0.5,0.7-0.8,1c-0.1,0.2-0.3,0.3-0.4,0.5
				l-0.5,0.4c-0.3,0.3-0.6,0.6-1,0.8c-0.4,0.2-0.7,0.4-1.1,0.6l-1.2,0.4c-0.4,0.1-0.8,0.2-1.2,0.3c-0.4,0.1-0.8,0.1-1.2,0.1
				c-0.4,0.1-0.8,0-1.2,0c-0.4,0-0.8,0-1.2-0.1c-0.8-0.1-1.6-0.2-2.3-0.3c-0.4-0.1-0.8-0.2-1.1-0.3c-0.4-0.1-0.7-0.2-1.2-0.4
				l1.2-0.5c-0.3,0.7-0.6,1.4-1,2.1c-0.1,0.1-0.1,0.2-0.2,0.3l-0.1,0.1c0,0,0,0.1-0.2,0.2l-0.1,0.1l0,0c0,0,0,0-0.2,0.1
				c-0.2,0.1-0.6,0.1-0.8,0c-0.3-0.1-0.3-0.2-0.4-0.3c-0.1-0.1-0.1-0.2-0.2-0.3c0-0.1,0-0.1,0-0.2l0,0l0-0.1c0-0.3,0-0.3,0.1-0.5
				l0.1-0.3c0.1-0.4,0.2-0.8,0.3-1.1l0.7-2.2c0.1-0.4,0.2-0.7,0.3-1c0.1-0.3,0.2-0.7,0.2-1c0-0.3,0.2-0.7,0.1-1c0-0.3,0.1-0.7,0-1
				l-0.1-0.5c0-0.1-0.1-0.3-0.1-0.4c0-0.1-0.1-0.3-0.2-0.4c-0.1-0.1-0.1-0.3-0.2-0.4l-0.3-0.3l-0.3-0.3c-0.2-0.2-0.5-0.3-0.8-0.4
				c-0.3-0.1-0.6-0.2-0.9-0.2c-0.3,0-0.7-0.1-0.9-0.1l-0.9,0l0-0.9l0-1.4c0-0.5,0.1-0.9,0.1-1.4c0-0.2,0.1-0.5,0.1-0.7
				c0.1-0.2,0.1-0.5,0.2-0.7l0.3-0.7c0.1-0.2,0.3-0.5,0.5-0.7c0.2-0.2,0.5-0.4,0.7-0.6c0.2-0.2,0.6-0.2,0.8-0.3
				c0.3,0,0.6-0.1,0.8-0.1c0.3,0,0.5,0,0.8,0.1c0.5,0.1,1,0.3,1.4,0.5c0.4,0.2,0.8,0.4,1.2,0.8l-1.2,0.5c0.1-0.6,0.2-1.1,0.4-1.7
				c0.1-0.6,0.3-1.1,0.5-1.7c0.2-0.6,0.4-1.1,0.7-1.7c0.3-0.5,0.6-1.1,1.1-1.5c0.5-0.5,1.1-0.9,1.7-1c0.7-0.1,1.4,0,2,0.2
				c0.6,0.2,1.1,0.6,1.6,1c0.5,0.4,0.9,0.8,1.3,1.3l0.1,0.1l0,0.1l0.3,2l0.1,0.5l0,0.1c0,0,0,0,0,0c0-0.1-0.1-0.1-0.1-0.1
				c-0.1,0-0.1-0.1-0.3-0.1c-0.2,0-0.3,0.3-0.3,0.3l0,0l0-0.2c0-0.3,0-0.7-0.1-1l-0.2-2c-0.1-0.7-0.1-1.3-0.1-2l0-1
				c0-0.3,0.1-0.7,0.2-1c0.1-0.3,0.2-0.7,0.4-1l0.3-0.4c0.1-0.1,0.2-0.3,0.4-0.4c0.3-0.2,0.6-0.4,0.9-0.5c0.3-0.1,0.7-0.1,1-0.1
				C134.2-184,134.9-183.8,135.5-183.5z"/>
		</g>
		<path class="st2" d="M121.3-161.2c0,0-5,4.2-9.2,0C112.1-161.2,118.8-174.8,121.3-161.2z"/>
		<g>
			<path d="M106.2-203.8c0,0,0.5-0.6,1.4-1.2c0.5-0.3,1.1-0.6,1.7-0.8c0.4-0.1,0.7-0.2,1.1-0.2c0.2,0,0.4,0,0.6,0l0.6,0
				c0.4,0,0.8,0.2,1.2,0.3c0.4,0.2,0.8,0.4,1.1,0.7c0.1,0.1,0.3,0.3,0.4,0.4c0.1,0.2,0.2,0.3,0.3,0.5c0.1,0.2,0.2,0.3,0.2,0.5
				c0,0.2,0.1,0.3,0.1,0.5c0.1,0.3,0.1,0.6,0.1,0.8c0,0.2,0,0.4,0,0.6c0,0.3-0.1,0.5-0.1,0.5s-0.1-0.2-0.3-0.4
				c-0.1-0.1-0.2-0.3-0.3-0.5c-0.1-0.2-0.3-0.3-0.4-0.5c-0.1-0.1-0.1-0.2-0.2-0.3c-0.1-0.1-0.2-0.2-0.3-0.2
				c-0.1-0.1-0.2-0.2-0.3-0.2c-0.1-0.1-0.2-0.1-0.3-0.2c-0.2-0.2-0.5-0.2-0.7-0.3c-0.3,0-0.5-0.1-0.8-0.1c-1.1-0.1-2.4,0-3.4,0.1
				C107-203.8,106.2-203.8,106.2-203.8z"/>
		</g>
		<path class="st2" d="M104.4-130.9v2.9c0,0,10.8,4,10.6,5.2s0.2-1.2,0.2-1.2l1.5-8.5c0,0-4.9-8-12.3-3.8V-130.9"/>
		<path class="st2" d="M72.2-142.2c0,0-4.9,4.2-3.9,8.5s7.2,3.5,11,7.5c0,0,4.8-13.2,6-10.2C85.2-136.5,75.6-143,72.2-142.2z"/>
	</g>
	<g class="farley" id="skateboard_2_">
		<g id="board_1_">
			<path class="st0" d="M66.2,112.7c0,0-53.8-14.9-32.2,29.3c0,0,5,8.3,16.9,12.5h163.3c0,0,28.1-6.4,29-26.7c0,0,7.4-33-48.8-15.2
				H66.2z"/>
			<path d="M66.1,112.8c-2.6-0.6-5.2-1.1-7.8-1.4c-1.3-0.2-2.6-0.3-3.9-0.4c-1.3-0.1-2.6-0.2-4-0.2c-1.3,0-2.6,0-4,0.1
				c-1.3,0.1-2.6,0.2-3.9,0.4c-1.3,0.2-2.6,0.5-3.8,0.9c-1.2,0.4-2.4,0.9-3.5,1.6c-0.6,0.3-1,0.7-1.6,1.1c-0.5,0.4-0.9,0.9-1.4,1.3
				c-0.4,0.5-0.8,1-1.1,1.5c-0.3,0.6-0.6,1.1-0.8,1.7c-0.2,0.6-0.4,1.2-0.5,1.8l-0.3,1.9l0,1.9c0,0.6,0.1,1.3,0.2,1.9
				c0.1,1.3,0.5,2.6,0.7,3.8c0.4,1.3,0.7,2.5,1.2,3.7c0.5,1.2,0.9,2.5,1.4,3.7l1.6,3.6l0-0.1c0.2,0.3,0.5,0.7,0.7,1
				c0.3,0.3,0.5,0.7,0.8,1c0.6,0.7,1.1,1.3,1.8,1.9c0.3,0.3,0.6,0.6,0.9,0.9c0.3,0.3,0.6,0.6,1,0.9c0.7,0.6,1.3,1.1,2,1.6
				c0.3,0.3,0.7,0.5,1.1,0.7c0.4,0.2,0.7,0.5,1.1,0.7c0.7,0.5,1.5,0.9,2.3,1.3c0.8,0.4,1.6,0.8,2.4,1.1c0.4,0.2,0.8,0.3,1.2,0.5
				l1.2,0.5l-0.3,0c6.8,0,13.6-0.1,20.4,0l20.4,0.1l40.8,0.4l20.4,0.1c6.8,0,13.6,0,20.4,0c6.8,0,13.6,0,20.4-0.1l20.4-0.2l-0.1,0
				c1.7-0.4,3.3-1,4.9-1.6c1.6-0.6,3.2-1.3,4.8-2c0.8-0.4,1.6-0.8,2.3-1.2c0.8-0.4,1.5-0.8,2.3-1.3c0.7-0.4,1.5-0.9,2.2-1.4
				c0.7-0.5,1.4-1,2.1-1.5c0.7-0.5,1.3-1.1,2-1.7l0.9-0.9l0.9-0.9c0.6-0.6,1.1-1.3,1.6-2c0.5-0.7,1-1.4,1.4-2.1
				c0.4-0.7,0.8-1.5,1.1-2.3c0.4-0.8,0.6-1.6,0.9-2.4c0.2-0.8,0.4-1.6,0.5-2.5c0.2-0.8,0.2-1.7,0.3-2.5l0-0.1l0-0.1
				c0.2-1.2,0.3-2.5,0.3-3.7c0-1.3-0.2-2.5-0.5-3.7c-0.3-1.2-0.7-2.4-1.3-3.5c-0.3-0.6-0.6-1.1-0.9-1.6c-0.4-0.5-0.7-1-1.2-1.4
				l-0.6-0.7l-0.7-0.6c-0.4-0.4-1-0.7-1.5-1.1c-0.5-0.3-1.1-0.6-1.6-0.9c-0.6-0.3-1.2-0.5-1.7-0.7c-1.2-0.4-2.4-0.7-3.6-0.9
				c-0.6-0.1-1.2-0.2-1.9-0.3c-0.6-0.1-1.3-0.2-1.9-0.2c-1.3-0.1-2.6-0.1-3.8-0.1c-1.3,0-2.6,0.1-3.8,0.2c-1.3,0.1-2.6,0.3-3.8,0.5
				c-1.3,0.2-2.5,0.4-3.8,0.7c-1.3,0.2-2.5,0.5-3.8,0.8c-1.3,0.3-2.5,0.6-3.8,0.9c-1.3,0.3-2.5,0.6-3.8,1l-3.7,1.1l-0.2,0l-0.2,0
				l-32,0l-32-0.2l-32-0.3L66.1,112.8L66.1,112.8z M66.2,112.6l32-0.4l32-0.3l32-0.2l32,0l-0.3,0l3.8-1.1c1.3-0.4,2.5-0.7,3.8-1.1
				c1.3-0.3,2.5-0.7,3.8-1c1.3-0.3,2.6-0.6,3.9-0.8c1.3-0.2,2.6-0.5,3.9-0.6c1.3-0.1,2.6-0.4,4-0.4c1.3-0.1,2.7-0.2,4-0.2
				c1.3-0.1,2.7,0,4,0.1c0.7,0,1.3,0.1,2,0.2c0.7,0.1,1.3,0.2,2,0.3c1.3,0.2,2.6,0.6,3.9,1c0.6,0.3,1.3,0.5,1.9,0.8
				c0.6,0.3,1.2,0.6,1.8,1c0.6,0.4,1.2,0.7,1.7,1.2l0.8,0.7l0.7,0.8c0.5,0.5,0.9,1.1,1.3,1.6c0.4,0.6,0.8,1.2,1.1,1.8
				c0.7,1.2,1.1,2.6,1.4,3.9c0.3,1.3,0.5,2.7,0.5,4.1c0,1.4-0.1,2.7-0.4,4.1l0-0.2c-0.1,0.9-0.1,1.8-0.3,2.7
				c-0.1,0.9-0.4,1.8-0.6,2.7c-0.3,0.9-0.6,1.7-1,2.6c-0.4,0.8-0.8,1.6-1.3,2.4c-0.5,0.8-1,1.5-1.6,2.2c-0.5,0.7-1.1,1.4-1.8,2.1
				l-0.9,1l-1,0.9c-0.7,0.6-1.4,1.2-2.1,1.7c-0.7,0.6-1.4,1.1-2.2,1.6c-0.7,0.5-1.5,1-2.3,1.4c-0.8,0.4-1.5,0.9-2.3,1.3
				c-0.8,0.4-1.6,0.8-2.4,1.2c-1.6,0.7-3.3,1.4-4.9,2c-1.7,0.6-3.4,1.1-5.1,1.5l-0.1,0l-0.1,0l-20.4-0.2c-6.8-0.1-13.6-0.1-20.4-0.1
				c-6.8,0-13.6-0.1-20.4,0l-20.4,0.1l-40.8,0.4l-20.4,0.1c-6.8,0-13.6,0-20.4,0l-0.2,0l-0.1,0l-1.3-0.5c-0.4-0.2-0.9-0.3-1.3-0.5
				c-0.8-0.4-1.7-0.7-2.5-1.2c-0.8-0.4-1.6-0.9-2.4-1.4c-0.4-0.2-0.8-0.5-1.1-0.7c-0.4-0.3-0.8-0.5-1.1-0.8
				c-0.7-0.5-1.4-1.1-2.1-1.7c-0.4-0.3-0.7-0.6-1-0.9c-0.3-0.3-0.7-0.6-1-1c-0.6-0.6-1.3-1.3-1.8-2c-0.3-0.4-0.6-0.7-0.9-1.1
				c-0.3-0.4-0.5-0.7-0.8-1.2l0,0l0,0l-1.7-3.7c-0.5-1.2-1-2.5-1.4-3.8c-0.4-1.3-0.8-2.6-1.1-3.9c-0.2-1.3-0.6-2.6-0.7-4
				c0-0.7-0.2-1.4-0.1-2l0.1-2.1l0.3-2.1c0.1-0.7,0.4-1.3,0.6-2c0.2-0.7,0.6-1.2,0.9-1.9c0.4-0.6,0.8-1.1,1.3-1.7
				c0.5-0.5,1-1,1.5-1.4c0.6-0.4,1.1-0.8,1.7-1.1c2.4-1.4,5.1-2.1,7.7-2.4c1.3-0.2,2.7-0.3,4-0.3c1.3,0,2.7,0,4,0
				c1.3,0.1,2.7,0.2,4,0.3c1.3,0.2,2.6,0.3,4,0.6C61,111.3,63.6,111.8,66.2,112.6z"/>
		</g>
		<ellipse id="wheel_3_" class="st1" cx="91.2" cy="162.8" rx="9.4" ry="8.3"/>
		<ellipse id="wheel_2_" class="st1" cx="189" cy="162.8" rx="9.4" ry="8.3"/>
	</g>
	<g id="farley_2_">
		<path class="st2" d="M98.3,52.7c0,0-20,39.1,12.3,38.4s0,1.8,0,1.8s27.5-1.8,28.8-33s0,0,0,0S135,25.3,98.3,52.7"/>
		<path class="st3" d="M174.6,139.6c0,0,1.8-13.5,8.5-15.5c0,0,1.5-3.2,0-8.2c0,0,5.9-22.5-3.9-22.2c0,0-1.6-15-6.6-10.8
			c0,0-5.2-19-10.8-8.8s0,1.8,0,1.8s9.8-18-9.8-17.2c0,0,5.2,2,3.8-6.2c0,0,6,0.5,4.5-6.2c0,0,4.8,0.2,2-7c0,0-0.7,7.5,6.1,6
			c0,0-0.1-11.5-10.4-11.2c0,0-1-11.8-13.8-10.3c0,0-7.5-7.2-15.8-1.2c0,0-24.8-7-24.8,11.3c0,0-10.2,2.5-7,13.2c0,0-4.5,15.2,20,10
			c0,0,10.8-2,13-8c0,0-5.3,9.2,8.8,12c0,0-1.5,4.2,3,4.2c0,0-11.5,2.6,0.8,14.7l-6.5-4.2c0,0-6.2,18.8-27.3,18.2
			c0,0-8.2-1.5-8.8,5.2c0,0,0.8,12.8,13.2,7c0,0-36.8-2-28,17.8c0,0-2,7.5,13.2,6c0,0,11.8,20.5,14.8,1.8c0,0,0.9,8.9,6.2,3.2
			c0.3-0.3,0.7-0.8,1-1.2c6.2-8-3,9.8,12.3,2c0,0-4.5,15.2,6,10.8l5.5-6.8l3.8,5.5l1.8-10c0,0,9.2,12.2,15.5,8
			C165.1,143.1,172.5,147.5,174.6,139.6z"/>
		<path class="st2" d="M155.8,52.3c0,0,0.2,16,20.2,13c0,0,10-19.7-17.8-22.2L155.8,52.3"/>
		<g>
			<path class="st4" d="M147.1,84.1c0,0-5.8-2.8-4.8,5.2s-0.1,1.2-0.1,1.2s-6.1-7.5-8.1,5c0,0-6.3-4.8-5.8,4.5c0,0,7-0.5,4.2,7.8
				s0,1.8,0,1.8s11.8,4.5,14.5-5.8c0,0,18.3,7,19.8-3.5C166.8,100.3,170.6,72.1,147.1,84.1z"/>
			<path d="M147.1,84.1c-0.6-0.2-1.3-0.4-1.9-0.4c-0.3,0-0.7,0-1,0.2c-0.3,0.1-0.6,0.3-0.8,0.5c-0.1,0.1-0.2,0.2-0.3,0.4l-0.2,0.4
				c-0.1,0.3-0.2,0.6-0.3,0.9c0,0.3-0.1,0.6-0.1,1l0,1c0.1,0.7,0.1,1.3,0.2,2l0.3,2c0,0.3,0.1,0.7,0.1,1c0,0.1,0,0.1,0,0.3l0,0
				c0,0-0.1,0.3-0.3,0.3c-0.2,0-0.2,0-0.3-0.1c-0.1,0-0.1-0.1-0.1-0.2c0-0.1,0-0.1,0-0.1l0-0.1l-0.1-0.5l-0.4-2l0.1,0.2
				c-0.3-0.4-0.8-0.7-1.2-1.1c-0.4-0.3-0.9-0.6-1.3-0.7c-0.5-0.2-0.9-0.2-1.4-0.1c-0.4,0.1-0.8,0.4-1.1,0.7
				c-0.3,0.4-0.6,0.8-0.8,1.3c-0.2,0.5-0.4,1-0.6,1.5c-0.3,1-0.5,2.1-0.7,3.2l-0.2,1.2l-1-0.7c-0.3-0.2-0.7-0.4-1-0.6
				c-0.4-0.2-0.7-0.3-1.1-0.4c-0.2-0.1-0.3,0-0.5-0.1c-0.2,0-0.3,0-0.5,0c-0.1,0.1-0.3,0.1-0.4,0.2c-0.1,0.1-0.2,0.1-0.3,0.3
				c-0.1,0.1-0.2,0.2-0.3,0.4l-0.2,0.5c-0.1,0.2-0.1,0.4-0.1,0.6c0,0.2-0.1,0.4-0.1,0.6c0,0.4-0.1,0.8-0.1,1.2l0,1.2l-0.9-0.8
				c0.5,0,0.9,0,1.3,0.1c0.4,0.1,0.8,0.2,1.3,0.3c0.4,0.1,0.8,0.3,1.2,0.6l0.6,0.4l0.5,0.5c0.2,0.2,0.3,0.4,0.4,0.6
				c0.1,0.2,0.2,0.4,0.3,0.6c0.1,0.2,0.2,0.4,0.2,0.6l0.1,0.7c0.1,0.4,0,0.9,0,1.3c0,0.4-0.1,0.8-0.1,1.2c0,0.4-0.2,0.8-0.3,1.2
				c-0.1,0.4-0.2,0.8-0.3,1.1l-0.7,2.1c-0.1,0.4-0.2,0.7-0.3,1l-0.1,0.2c0,0.1,0,0.2,0,0.1l0,0l0,0c0,0,0-0.1,0-0.2
				c0-0.1-0.1-0.2-0.2-0.3c-0.1-0.1-0.1-0.1-0.3-0.3c-0.2-0.1-0.6-0.1-0.8,0c-0.1,0.1-0.1,0.1-0.1,0.1l0,0l-0.1,0.1l-0.1,0.1
				c0,0,0,0,0,0l0.1-0.2c0.3-0.6,0.6-1.3,0.9-2l0.4-0.9l0.9,0.3c0.3,0.1,0.6,0.2,1,0.3c0.3,0.1,0.7,0.2,1,0.2
				c0.7,0.1,1.4,0.3,2.1,0.3c0.3,0,0.7,0.1,1,0c0.3,0,0.7,0,1,0c0.3,0,0.7,0,1-0.1c0.3-0.1,0.7-0.1,1-0.2l0.9-0.3
				c0.3-0.1,0.6-0.3,0.9-0.5c0.3-0.1,0.5-0.4,0.8-0.6l0.4-0.3c0.1-0.1,0.2-0.3,0.3-0.4c0.2-0.3,0.4-0.5,0.6-0.8l0.5-0.9
				c0.2-0.3,0.3-0.6,0.4-0.9l0.3-1l0.4-1l0.9,0.3c1.1,0.4,2.2,0.8,3.4,1.1c1.1,0.3,2.3,0.6,3.4,0.8c2.3,0.4,4.7,0.6,6.9,0.2
				c1.1-0.2,2.1-0.6,2.9-1.2c0.8-0.6,1.4-1.5,1.7-2.5c0.3-1,0.4-2.2,0.5-3.4c0.1-1.2,0.1-2.4,0-3.5c-0.1-2.4-0.4-4.7-1.2-6.9
				c-0.4-1.1-0.9-2.1-1.7-3c-0.7-0.9-1.6-1.6-2.6-2.1c-1-0.5-2.2-0.7-3.3-0.8c-0.6,0-1.2,0-1.8,0l-0.9,0.1l-0.9,0.2l-0.9,0.2
				l-0.9,0.2c-0.6,0.2-1.2,0.3-1.7,0.5C149.3,83.1,148.2,83.6,147.1,84.1z M147.1,84.1c1.1-0.6,2.1-1.1,3.3-1.6
				c0.5-0.3,1.1-0.5,1.7-0.7l0.9-0.3l0.9-0.2l0.9-0.2l0.9-0.1c0.6-0.1,1.2-0.1,1.8-0.1c1.2,0,2.5,0.2,3.7,0.7
				c1.2,0.5,2.2,1.3,3.1,2.3c0.9,1,1.5,2.1,1.9,3.2c1,2.3,1.4,4.8,1.6,7.2c0.1,1.2,0.1,2.5,0.1,3.7c0,0.6,0,1.2-0.1,1.8
				c0,0.6-0.2,1.3-0.3,1.9c-0.4,1.3-1.2,2.5-2.2,3.4c-1.1,0.9-2.4,1.3-3.7,1.6c-2.6,0.5-5.1,0.3-7.5-0.1c-1.2-0.2-2.4-0.5-3.6-0.8
				c-1.2-0.3-2.4-0.7-3.6-1.1l1.3-0.7l-0.4,1.1c-0.1,0.4-0.2,0.8-0.5,1.1l-0.6,1.1c-0.2,0.4-0.5,0.7-0.8,1c-0.1,0.2-0.3,0.3-0.4,0.5
				l-0.5,0.4c-0.3,0.3-0.6,0.6-1,0.8c-0.4,0.2-0.7,0.4-1.1,0.6l-1.2,0.4c-0.4,0.1-0.8,0.2-1.2,0.3c-0.4,0.1-0.8,0.1-1.2,0.1
				c-0.4,0.1-0.8,0-1.2,0c-0.4,0-0.8,0-1.2-0.1c-0.8-0.1-1.6-0.2-2.3-0.3c-0.4-0.1-0.8-0.2-1.1-0.3c-0.4-0.1-0.7-0.2-1.2-0.4
				l1.2-0.5c-0.3,0.7-0.6,1.4-1,2.1c-0.1,0.1-0.1,0.2-0.2,0.3l-0.1,0.1c0,0,0,0.1-0.2,0.2l-0.1,0.1l0,0c0,0,0,0-0.2,0.1
				c-0.2,0.1-0.6,0.1-0.8,0c-0.3-0.1-0.3-0.2-0.4-0.3c-0.1-0.1-0.1-0.2-0.2-0.3c0-0.1,0-0.1,0-0.2l0,0l0-0.1c0-0.3,0-0.3,0.1-0.5
				l0.1-0.3c0.1-0.4,0.2-0.8,0.3-1.1l0.7-2.2c0.1-0.4,0.2-0.7,0.3-1c0.1-0.3,0.2-0.7,0.2-1c0-0.3,0.2-0.7,0.1-1c0-0.3,0.1-0.7,0-1
				l-0.1-0.5c0-0.1-0.1-0.3-0.1-0.4c0-0.1-0.1-0.3-0.2-0.4c-0.1-0.1-0.1-0.3-0.2-0.4l-0.3-0.3l-0.3-0.3c-0.2-0.2-0.5-0.3-0.8-0.4
				c-0.3-0.1-0.6-0.2-0.9-0.2c-0.3,0-0.7-0.1-0.9-0.1l-0.9,0l0-0.9l0-1.4c0-0.5,0.1-0.9,0.1-1.4c0-0.2,0.1-0.5,0.1-0.7
				c0.1-0.2,0.1-0.5,0.2-0.7l0.3-0.7c0.1-0.2,0.3-0.5,0.5-0.7c0.2-0.2,0.5-0.4,0.7-0.6c0.2-0.2,0.6-0.2,0.8-0.3
				c0.3,0,0.6-0.1,0.8-0.1c0.3,0,0.5,0,0.8,0.1c0.5,0.1,1,0.3,1.4,0.5c0.4,0.2,0.8,0.4,1.2,0.8l-1.2,0.5c0.1-0.6,0.2-1.1,0.4-1.7
				c0.1-0.6,0.3-1.1,0.5-1.7c0.2-0.6,0.4-1.1,0.7-1.7c0.3-0.5,0.6-1.1,1.1-1.5c0.5-0.5,1.1-0.9,1.7-1c0.7-0.1,1.4,0,2,0.2
				c0.6,0.2,1.1,0.6,1.6,1c0.5,0.4,0.9,0.8,1.3,1.3l0.1,0.1l0,0.1l0.3,2l0.1,0.5l0,0.1c0,0,0,0,0,0c0-0.1-0.1-0.1-0.1-0.1
				c-0.1,0-0.1-0.1-0.3-0.1c-0.2,0-0.3,0.3-0.3,0.3l0,0l0-0.2c0-0.3,0-0.7-0.1-1l-0.2-2c-0.1-0.7-0.1-1.3-0.1-2l0-1
				c0-0.3,0.1-0.7,0.2-1c0.1-0.3,0.2-0.7,0.4-1l0.3-0.4c0.1-0.1,0.2-0.3,0.4-0.4c0.3-0.2,0.6-0.4,0.9-0.5c0.3-0.1,0.7-0.1,1-0.1
				C145.8,83.6,146.5,83.8,147.1,84.1z"/>
		</g>
		<path class="st2" d="M132.9,106.3c0,0-5,4.2-9.3,0C123.7,106.3,130.4,92.8,132.9,106.3z"/>
		<g>
			<path d="M117.8,63.8c0,0,0.5-0.6,1.4-1.2c0.5-0.3,1.1-0.6,1.7-0.8c0.4-0.1,0.7-0.2,1.1-0.2c0.2,0,0.4,0,0.6,0l0.6,0
				c0.4,0,0.8,0.2,1.2,0.3c0.4,0.2,0.8,0.4,1.1,0.7c0.1,0.1,0.3,0.3,0.4,0.4c0.1,0.2,0.2,0.3,0.3,0.5c0.1,0.2,0.2,0.3,0.2,0.5
				c0,0.2,0.1,0.3,0.1,0.5c0.1,0.3,0.1,0.6,0.1,0.8c0,0.2,0,0.4,0,0.6c0,0.3-0.1,0.5-0.1,0.5s-0.1-0.2-0.3-0.4
				c-0.1-0.1-0.2-0.3-0.3-0.5c-0.1-0.2-0.3-0.3-0.4-0.5c-0.1-0.1-0.1-0.2-0.2-0.3c-0.1-0.1-0.2-0.2-0.3-0.2
				c-0.1-0.1-0.2-0.2-0.3-0.2c-0.1-0.1-0.2-0.1-0.3-0.2c-0.2-0.2-0.5-0.2-0.7-0.3c-0.3,0-0.5-0.1-0.8-0.1c-1.1-0.1-2.4,0-3.4,0.1
				C118.6,63.8,117.8,63.8,117.8,63.8z"/>
		</g>
		<path class="st2" d="M116,136.7v2.9c0,0,10.8,4,10.6,5.2s0.2-1.2,0.2-1.2l1.5-8.5c0,0-4.9-8-12.3-3.8V136.7"/>
		<path class="st2" d="M83.7,125.3c0,0-4.9,4.3-3.9,8.5s7.2,3.5,11,7.5c0,0,4.8-13.2,6-10.2C96.8,131.1,87.1,124.6,83.7,125.3z"/>
	</g>
</g>
</g>
</svg>
