<?xml version="1.0" encoding="utf-8"?>

<!-- Generator: Adobe Illustrator 20.1.0, SVG Export Plug-In . SVG Version: 6.00 Build 0)  -->
<svg version="1.1" xmlns="http://www.w3.org/2000/svg" xmlns:xlink="http://www.w3.org/1999/xlink" x="0px" y="0px"
	 viewBox="0 0 400 400" style="enable-background:new 0 0 400 400;" xml:space="preserve">
<defs>
	 <style> <![CDATA[
	 	 @keyframes flicker {
	 	 0%   { opacity: 1; }
	 	 50%  { opacity: 0; }
	 	 100% { opacity: 1; }
	 }
	 @-moz-keyframes flicker{
	 0%   { opacity: 1; }
	 50%  { opacity: 0; }
	 100% { opacity: 1; }
	 }
	 @-webkit-keyframes flicker{
	 0%   { opacity: 1; }
	 50%  { opacity: 0; }
	 100% { opacity: 1; }
	 }
	 .anim-flicker {
	    -webkit-animation: flicker 0.1s infinite;
	    -moz-animation: flicker 0.1s infinite;
	     animation: flicker 0.1s infinite;
	 }
	 	 ]]>
 </style>
 </defs>
<g id="lightning" class="anim-flicker">
	<g id="bolts" class="anim-flicker">
		<g>
			<path style="fill:#FBB040;" d="M83.5,133.1c1.3,2.4,2.5,4.8,3.7,7.2l3.6,7.3c2.4,4.9,4.7,9.8,7,14.7l3.4,7.4l3.3,7.4l3.3,7.4
				l3.2,7.4l1.3,3l-3,2c-4,2.7-8.1,5.3-12.2,7.9c-4.1,2.6-8.2,5.2-12.3,7.8c-4.1,2.6-8.2,5.1-12.3,7.7c-4.1,2.5-8.2,5.1-12.4,7.6
				l0.4-8.3l6.2,4.6l6.2,4.7l6.1,4.7l6.1,4.7l6.1,4.8l6.1,4.8c4,3.2,8.1,6.5,12.1,9.7l3.5,2.8l-3.2,2.7c-3.2,2.7-6.5,5.4-9.8,8.1
				c-3.3,2.7-6.6,5.3-9.9,8l-5,3.9c-1.7,1.3-3.3,2.6-5,3.9c-1.7,1.3-3.3,2.6-5,3.9c-1.7,1.3-3.4,2.6-5.1,3.8
				c1.4-1.6,2.8-3.2,4.2-4.8c1.4-1.6,2.9-3.1,4.3-4.7c1.4-1.6,2.9-3.1,4.3-4.7L87,276c2.9-3.1,5.9-6.1,8.8-9.1c3-3,5.9-6,8.9-9
				l0.3,5.5c-4.3-2.9-8.5-5.8-12.8-8.8l-6.3-4.4l-6.3-4.5l-6.3-4.5l-6.3-4.5l-6.3-4.6l-6.2-4.6l-5.9-4.4l6.3-3.9
				c4.1-2.5,8.3-5,12.4-7.5c4.1-2.5,8.3-4.9,12.5-7.4c4.2-2.5,8.4-4.9,12.6-7.3c4.2-2.4,8.4-4.8,12.6-7.2l-1.7,5l-2.7-7.6l-2.6-7.7
				l-2.6-7.7l-2.5-7.7c-1.7-5.1-3.3-10.3-4.9-15.5l-2.3-7.8C85,138.4,84.2,135.8,83.5,133.1z"/>
		</g>
		<g>
			<path style="fill:#F15A29;" d="M131.3,122.8c0.7,1.6,1.3,3.2,1.9,4.7c0.6,1.6,1.3,3.2,1.9,4.7l3.7,9.5c2.3,6.4,4.8,12.7,7,19.1
				l3.4,9.6l3.3,9.6l3.3,9.6c1.1,3.2,2.2,6.4,3.2,9.7l0.9,2.7l-2.4,1.9l-6.1,5l-6.1,5c-4.1,3.3-8.2,6.6-12.3,9.9
				c-4.1,3.3-8.2,6.6-12.3,9.8c-4.1,3.3-8.3,6.5-12.4,9.7l0.4-7.5c4.1,4,8.2,8,12.3,12c4.1,4,8.2,8.1,12.2,12.1l12.1,12.3l6,6.2
				l6,6.2l2.4,2.5l-2.2,2.4c-3.2,3.6-6.5,7.1-9.8,10.7l-4.9,5.3l-5,5.3l-5,5.2c-1.7,1.8-3.4,3.5-5.1,5.2c-1.7,1.7-3.4,3.5-5.1,5.2
				c-1.7,1.7-3.4,3.4-5.2,5.1c1.4-2,2.8-4,4.2-6c1.4-2,2.8-3.9,4.2-5.9c1.4-2,2.8-3.9,4.3-5.9l4.3-5.8l4.3-5.8l4.4-5.8
				c2.9-3.8,5.9-7.7,8.9-11.5l0.3,4.9l-6.4-5.7l-6.4-5.8l-12.7-11.6c-4.2-3.9-8.4-7.8-12.6-11.8c-4.2-3.9-8.4-7.9-12.5-11.9
				l-4.1-3.9l4.5-3.6c4.1-3.3,8.3-6.5,12.4-9.7c4.1-3.2,8.3-6.5,12.5-9.7c4.2-3.2,8.3-6.4,12.5-9.6l6.3-4.8l6.3-4.7l-1.5,4.6
				c-0.9-3.3-1.8-6.5-2.7-9.8l-2.6-9.8l-2.6-9.9l-2.5-9.9c-1.7-6.6-3.2-13.2-4.8-19.8l-2.2-10c-0.4-1.7-0.7-3.3-1.1-5
				C131.9,126.2,131.6,124.5,131.3,122.8z"/>
		</g>
		<g>
			<path style="fill:#F15A29;" d="M261.6,122.8c0.7,1.6,1.3,3.2,1.9,4.7c0.6,1.6,1.3,3.2,1.9,4.7l3.7,9.5c2.3,6.4,4.8,12.7,7,19.1
				l3.4,9.6l3.3,9.6l3.3,9.6c1.1,3.2,2.2,6.4,3.2,9.7l0.9,2.7l-2.4,1.9l-6.1,5l-6.1,5c-4.1,3.3-8.2,6.6-12.3,9.9
				c-4.1,3.3-8.2,6.6-12.3,9.8c-4.1,3.3-8.3,6.5-12.4,9.7l0.4-7.5c4.1,4,8.2,8,12.3,12c4.1,4,8.2,8.1,12.2,12.1l12.1,12.3l6,6.2
				l6,6.2l2.4,2.5l-2.2,2.4c-3.2,3.6-6.5,7.1-9.8,10.7l-4.9,5.3l-5,5.3l-5,5.2c-1.7,1.8-3.4,3.5-5.1,5.2c-1.7,1.7-3.4,3.5-5.1,5.2
				c-1.7,1.7-3.4,3.4-5.2,5.1c1.4-2,2.8-4,4.2-6c1.4-2,2.8-3.9,4.2-5.9c1.4-2,2.8-3.9,4.3-5.9l4.3-5.8l4.3-5.8l4.4-5.8
				c2.9-3.8,5.9-7.7,8.9-11.5l0.3,4.9l-6.4-5.7l-6.4-5.8l-12.7-11.6c-4.2-3.9-8.4-7.8-12.6-11.8c-4.2-3.9-8.4-7.9-12.5-11.9
				l-4.1-3.9l4.5-3.6c4.1-3.3,8.3-6.5,12.4-9.7c4.1-3.2,8.3-6.5,12.5-9.7c4.2-3.2,8.3-6.4,12.5-9.6l6.3-4.8l6.3-4.7l-1.5,4.6
				c-0.9-3.3-1.8-6.5-2.7-9.8l-2.6-9.8l-2.6-9.9l-2.5-9.9c-1.7-6.6-3.2-13.2-4.8-19.8l-2.2-10c-0.4-1.7-0.7-3.3-1.1-5
				C262.3,126.2,261.9,124.5,261.6,122.8z"/>
		</g>
		<g>
			<path style="fill:#FBB040;" d="M163,89.3c1.3,2.4,2.5,4.8,3.7,7.2l3.6,7.3c2.4,4.9,4.7,9.8,7,14.7l3.4,7.4l3.3,7.4l3.3,7.4
				l3.2,7.4l1.3,3l-3,2c-4,2.7-8.1,5.3-12.2,7.9c-4.1,2.6-8.2,5.2-12.3,7.8c-4.1,2.6-8.2,5.1-12.3,7.7c-4.1,2.5-8.2,5.1-12.4,7.6
				l0.4-8.3l6.2,4.6l6.2,4.7l6.1,4.7l6.1,4.7l6.1,4.8l6.1,4.8c4,3.2,8.1,6.5,12.1,9.7l3.5,2.8l-3.2,2.7c-3.2,2.7-6.5,5.4-9.8,8.1
				c-3.3,2.7-6.6,5.3-9.9,8l-5,3.9c-1.7,1.3-3.3,2.6-5,3.9c-1.7,1.3-3.3,2.6-5,3.9c-1.7,1.3-3.4,2.6-5.1,3.8
				c1.4-1.6,2.8-3.2,4.2-4.8c1.4-1.6,2.9-3.1,4.3-4.7c1.4-1.6,2.9-3.1,4.3-4.7l4.4-4.6c2.9-3.1,5.9-6.1,8.8-9.1c3-3,5.9-6,8.9-9
				l0.3,5.5c-4.3-2.9-8.5-5.8-12.8-8.8l-6.3-4.4l-6.3-4.5l-6.3-4.5l-6.3-4.5l-6.3-4.6l-6.2-4.6l-5.9-4.4l6.3-3.9
				c4.1-2.5,8.3-5,12.4-7.5c4.1-2.5,8.3-4.9,12.5-7.4c4.2-2.5,8.4-4.9,12.6-7.3c4.2-2.4,8.4-4.8,12.6-7.2l-1.7,5l-2.7-7.6l-2.6-7.7
				l-2.6-7.7l-2.5-7.7c-1.7-5.1-3.3-10.3-4.9-15.5l-2.3-7.8C164.4,94.5,163.7,91.9,163,89.3z"/>
		</g>
		<g>
			<path style="fill:#FBB040;" d="M225.5,122.8c1.3,2.4,2.5,4.8,3.7,7.2l3.6,7.3c2.4,4.9,4.7,9.8,7,14.7l3.4,7.4l3.3,7.4l3.3,7.4
				l3.2,7.4l1.3,3l-3,2c-4,2.7-8.1,5.3-12.2,7.9c-4.1,2.6-8.2,5.2-12.3,7.8c-4.1,2.6-8.2,5.1-12.3,7.7c-4.1,2.5-8.2,5.1-12.4,7.6
				l0.4-8.3l6.2,4.6l6.2,4.7l6.1,4.7l6.1,4.7l6.1,4.8l6.1,4.8c4,3.2,8.1,6.5,12.1,9.7l3.5,2.8l-3.2,2.7c-3.2,2.7-6.5,5.4-9.8,8.1
				c-3.3,2.7-6.6,5.3-9.9,8l-5,3.9c-1.7,1.3-3.3,2.6-5,3.9c-1.7,1.3-3.3,2.6-5,3.9c-1.7,1.3-3.4,2.6-5.1,3.8
				c1.4-1.6,2.8-3.2,4.2-4.8c1.4-1.6,2.9-3.1,4.3-4.7c1.4-1.6,2.9-3.1,4.3-4.7l4.4-4.6c2.9-3.1,5.9-6.1,8.8-9.1c3-3,5.9-6,8.9-9
				l0.3,5.5c-4.3-2.9-8.5-5.8-12.8-8.8l-6.3-4.4l-6.3-4.5l-6.3-4.5l-6.3-4.5l-6.3-4.6l-6.2-4.6l-5.9-4.4l6.3-3.9
				c4.1-2.5,8.3-5,12.4-7.5c4.1-2.5,8.3-4.9,12.5-7.4c4.2-2.5,8.4-4.9,12.6-7.3c4.2-2.4,8.4-4.8,12.6-7.2l-1.7,5l-2.7-7.6l-2.6-7.7
				l-2.6-7.7l-2.5-7.7c-1.7-5.1-3.3-10.3-4.9-15.5l-2.3-7.8C227,128.1,226.2,125.5,225.5,122.8z"/>
		</g>
		<g>
			<path style="fill:#FBB040;" d="M301.4,89.3c1.3,2.4,2.5,4.8,3.7,7.2l3.6,7.3c2.4,4.9,4.7,9.8,7,14.7l3.4,7.4l3.3,7.4l3.3,7.4
				l3.2,7.4l1.3,3l-3,2c-4,2.7-8.1,5.3-12.2,7.9c-4.1,2.6-8.2,5.2-12.3,7.8c-4.1,2.6-8.2,5.1-12.3,7.7c-4.1,2.5-8.2,5.1-12.4,7.6
				l0.4-8.3l6.2,4.6l6.2,4.7l6.1,4.7l6.1,4.7l6.1,4.8l6.1,4.8c4,3.2,8.1,6.5,12.1,9.7l3.5,2.8l-3.2,2.7c-3.2,2.7-6.5,5.4-9.8,8.1
				c-3.3,2.7-6.6,5.3-9.9,8l-5,3.9c-1.7,1.3-3.3,2.6-5,3.9c-1.7,1.3-3.3,2.6-5,3.9c-1.7,1.3-3.4,2.6-5.1,3.8
				c1.4-1.6,2.8-3.2,4.2-4.8c1.4-1.6,2.9-3.1,4.3-4.7c1.4-1.6,2.9-3.1,4.3-4.7l4.4-4.6c2.9-3.1,5.9-6.1,8.8-9.1c3-3,5.9-6,8.9-9
				l0.3,5.5c-4.3-2.9-8.5-5.8-12.8-8.8l-6.3-4.4l-6.3-4.5l-6.3-4.5l-6.3-4.5l-6.3-4.6l-6.2-4.6l-5.9-4.4l6.3-3.9
				c4.1-2.5,8.3-5,12.4-7.5c4.1-2.5,8.3-4.9,12.5-7.4c4.2-2.5,8.4-4.9,12.6-7.3c4.2-2.4,8.4-4.8,12.6-7.2l-1.7,5l-2.7-7.6l-2.6-7.7
				l-2.6-7.7l-2.5-7.7c-1.7-5.1-3.3-10.3-4.9-15.5l-2.3-7.8C302.8,94.5,302.1,91.9,301.4,89.3z"/>
		</g>
	</g>
</g>
<g id="clouds">
	<g id="thunder">
		<path id="cloud4" style="fill:#6D6E71;" d="M11.5,72.8c0,0,52.6-61.4,96.1-0.6c0,0,76.4-55.4,91.8,19.2c0,0,6.9,44.5-30.9,36.1
			c0,0-8,26.2-32.7,8.6c0,0-9.7,26-28.2-0.7c0,0-24.8,50-69.6-5.1C38.1,130.3,4.1,115.2,11.5,72.8z"/>
		<path id="cloud3" style="fill:#939598;" d="M11.5,51.7c0,0,52.6-61.4,96.1-0.6c0,0,76.4-55.4,91.8,19.2c0,0,6.9,44.5-30.9,36.1
			c0,0-8,26.2-32.7,8.6c0,0-9.7,26-28.2-0.7c0,0-24.8,50-69.6-5.1C38.1,109.2,4.1,94,11.5,51.7z"/>
		<path id="cloud2" style="fill:#6D6E71;" d="M178.3,67.3c0,0,52.6-61.4,96.1-0.6c0,0,76.4-55.4,91.8,19.2c0,0,6.9,44.5-30.9,36.1
			c0,0-8,26.2-32.7,8.6c0,0-9.7,26-28.2-0.7c0,0-24.8,50-69.6-5.1C204.8,124.8,170.9,109.7,178.3,67.3z"/>
		<path id="cloud1" style="fill:#BCBEC0;" d="M178.3,51.7c0,0,52.6-61.4,96.1-0.6c0,0,76.4-55.4,91.8,19.2c0,0,6.9,44.5-30.9,36.1
			c0,0-8,26.2-32.7,8.6c0,0-9.7,26-28.2-0.7c0,0-24.8,50-69.6-5.1C204.8,109.2,170.9,94,178.3,51.7z"/>
	</g>
</g>
</svg>
